# xmcd
#
# Track frame offsets: 
#        150
#        24286
#        38735
#        62140
#        79512
#
# Disc length: 1362 seconds
#
# Revision: 0
# Processed by: cddbd v1.5.2PL0 Copyright (c) Steve Scherf et al.
# Submitted via: ExactAudioCopy v0.95a5
#
DISCID=2f055005
DTITLE=Shaolin - Gaining Freedom At The Expense of Virtue
DYEAR=2006
DGENRE=Hardcore
TTITLE0=Shoot To Kill
TTITLE1=Lives Lost To Greed
TTITLE2=Losing The Battle
TTITLE3=Corrupted State of Mind
TTITLE4=To Achieve Liberation
EXTD=
EXTT0=
EXTT1=
EXTT2=
EXTT3=
EXTT4=
PLAYORDER=
